<svg width="1200" height="630" viewBox="0 0 1200 630" fill="none" xmlns="http://www.w3.org/2000/svg" role="img" aria-labelledby="title desc">
  <title id="title">Cobalt social preview</title>
  <desc id="desc">A clean blue Cobalt share card for privacy-first browser tools for developers.</desc>
  <defs>
    <linearGradient id="bg" x1="84" y1="54" x2="1116" y2="576" gradientUnits="userSpaceOnUse">
      <stop stop-color="#F8FBFF"/>
      <stop offset="1" stop-color="#EAF2FF"/>
    </linearGradient>
    <linearGradient id="hero" x1="320" y1="104" x2="948" y2="502" gradientUnits="userSpaceOnUse">
      <stop stop-color="#2563EB"/>
      <stop offset="1" stop-color="#1D4ED8"/>
    </linearGradient>
    <filter id="shadow" x="112" y="80" width="976" height="470" filterUnits="userSpaceOnUse" color-interpolation-filters="sRGB">
      <feDropShadow dx="0" dy="24" stdDeviation="28" flood-color="#2563EB" flood-opacity="0.12"/>
    </filter>
  </defs>

  <rect width="1200" height="630" rx="36" fill="url(#bg)"/>
  <circle cx="1080" cy="84" r="164" fill="#DBEAFE"/>
  <circle cx="1034" cy="128" r="94" fill="#BFDBFE"/>

  <g filter="url(#shadow)">
    <rect x="128" y="96" width="944" height="438" rx="28" fill="#FFFFFF" stroke="#D7E3F7"/>
    <rect x="160" y="128" width="430" height="374" rx="28" fill="url(#hero)"/>

    <rect x="196" y="166" width="68" height="68" rx="20" fill="rgba(255,255,255,0.16)"/>
    <path d="M244 182H220C214.477 182 210 186.477 210 192V208C210 213.523 214.477 218 220 218H244" stroke="white" stroke-width="6" stroke-linecap="round" stroke-linejoin="round"/>
    <path d="M232 194L243 200L232 206" stroke="#BFDBFE" stroke-width="6" stroke-linecap="round" stroke-linejoin="round"/>

    <text x="196" y="286" fill="white" font-family="Manrope, Arial, sans-serif" font-size="62" font-weight="800">Privacy-first</text>
    <text x="196" y="354" fill="white" font-family="Manrope, Arial, sans-serif" font-size="62" font-weight="800">browser tools</text>
    <text x="196" y="422" fill="white" font-family="Manrope, Arial, sans-serif" font-size="62" font-weight="800">for developers.</text>

    <text x="642" y="176" fill="#2563EB" font-family="IBM Plex Mono, monospace" font-size="24" font-weight="700" letter-spacing="0.12em">
      COBALT
    </text>
    <text x="642" y="254" fill="#132033" font-family="Manrope, Arial, sans-serif" font-size="50" font-weight="800">
      Minimal local utilities
    </text>
    <text x="642" y="314" fill="#132033" font-family="Manrope, Arial, sans-serif" font-size="50" font-weight="800">
      for payloads, diffs,
    </text>
    <text x="642" y="374" fill="#132033" font-family="Manrope, Arial, sans-serif" font-size="50" font-weight="800">
      configs, and review.
    </text>

    <text x="642" y="434" fill="#5B6C86" font-family="Manrope, Arial, sans-serif" font-size="26" font-weight="600">
      Browser-first workflows with readable UI and zero required backend.
    </text>

    <rect x="642" y="462" width="214" height="52" rx="26" fill="#2563EB"/>
    <text x="682" y="495" fill="white" font-family="Manrope, Arial, sans-serif" font-size="26" font-weight="800">34 live tools</text>
  </g>
</svg>
